<svg width="155" height="50" viewBox="0 0 155 50" fill="none" xmlns="http://www.w3.org/2000/svg">
<rect width="50" height="50" rx="25" fill="#A8C090"/>
<path d="M14.3333 27.76C15.6867 27.76 17.5747 27.3573 18.76 28.2267L21.1093 29.9467C21.9827 30.5867 22.928 30.376 23.9027 30.224C25.1853 30.0227 26.3333 31.1173 26.3333 32.5413C26.3333 32.9307 23.5693 33.9213 23.1707 34.1093C22.7868 34.2908 22.3607 34.3642 21.9383 34.3214C21.5158 34.2786 21.113 34.1214 20.7733 33.8667L18.1227 31.924" stroke="white" stroke-width="2" stroke-linecap="round" stroke-linejoin="round"/>
<path d="M26.3333 31.6667L31.788 29.1467C32.2691 28.9805 32.7879 28.9568 33.2821 29.0787C33.7762 29.2005 34.2247 29.4626 34.5733 29.8333L35.4667 30.768C35.7867 31.1013 35.712 31.664 35.316 31.8933L24.844 37.9747C24.5346 38.156 24.1913 38.2717 23.8353 38.3146C23.4793 38.3575 23.1182 38.3266 22.7747 38.224L14.3333 35.7027M25.0027 25C25.0027 25 27.8027 22.0147 27.8027 18.3333C27.8027 14.652 25.0027 11.6667 25.0027 11.6667C25.0027 11.6667 22.2027 14.652 22.2027 18.3333C22.2027 22.0147 25.0027 25 25.0027 25ZM25.0027 25C25.0027 25 29.092 24.9093 31.6693 22.28C34.2467 19.6493 34.336 15.476 34.336 15.476C34.336 15.476 32.6427 15.5133 30.7493 16.2413M25.0027 25C25.0027 25 20.9133 24.9093 18.336 22.28C15.7587 19.6493 15.6693 15.476 15.6693 15.476C15.6693 15.476 17.3627 15.5133 19.256 16.2413" stroke="white" stroke-width="2" stroke-linecap="round" stroke-linejoin="round"/>
<path d="M65.9434 32.332C64.8952 32.332 63.9544 32.1628 63.1211 31.8242C62.2878 31.4857 61.5781 30.9974 60.9922 30.3594C60.4062 29.7148 59.957 28.9368 59.6445 28.0254C59.332 27.1139 59.1758 26.0853 59.1758 24.9395V24.9297C59.1758 23.4193 59.4492 22.1139 59.9961 21.0137C60.543 19.9134 61.3177 19.0671 62.3203 18.4746C63.3229 17.8757 64.5078 17.5762 65.875 17.5762C66.9883 17.5762 67.9811 17.778 68.8535 18.1816C69.7324 18.5788 70.4486 19.1289 71.002 19.832C71.5618 20.5352 71.9134 21.349 72.0566 22.2734L72.0664 22.3809H69.1367L69.1074 22.293C68.9056 21.5898 68.5215 21.0462 67.9551 20.6621C67.3887 20.2715 66.6953 20.0762 65.875 20.0762C65.1133 20.0762 64.4557 20.2715 63.9023 20.6621C63.3555 21.0462 62.9323 21.5996 62.6328 22.3223C62.3333 23.0384 62.1836 23.8978 62.1836 24.9004V24.9199C62.1836 25.6816 62.2715 26.3652 62.4473 26.9707C62.623 27.5762 62.877 28.0938 63.209 28.5234C63.5475 28.9466 63.9479 29.2721 64.4102 29.5C64.8789 29.7214 65.4062 29.832 65.9922 29.832C66.6367 29.832 67.2031 29.7116 67.6914 29.4707C68.1862 29.2233 68.5736 28.8815 68.8535 28.4453C69.14 28.0026 69.293 27.485 69.3125 26.8926L69.3223 26.6484H66.2363V24.4805H72.1934V26.2285C72.1934 27.1725 72.0501 28.0221 71.7637 28.7773C71.4772 29.526 71.0605 30.1673 70.5137 30.7012C69.9733 31.2285 69.3158 31.6322 68.541 31.9121C67.7728 32.1921 66.9069 32.332 65.9434 32.332ZM74.5469 32V21.3164H77.3984V23.0254H77.5449C77.7142 22.4264 78.0267 21.9609 78.4824 21.6289C78.9382 21.2969 79.5046 21.1309 80.1816 21.1309C80.3639 21.1309 80.543 21.1439 80.7188 21.1699C80.8945 21.196 81.0508 21.2285 81.1875 21.2676V23.7578C80.9987 23.7057 80.7969 23.6667 80.582 23.6406C80.3737 23.6081 80.1589 23.5918 79.9375 23.5918C79.4167 23.5918 78.9642 23.6895 78.5801 23.8848C78.2025 24.0801 77.9095 24.36 77.7012 24.7246C77.4993 25.0827 77.3984 25.5156 77.3984 26.0234V32H74.5469ZM87.4082 32.2246C86.321 32.2246 85.3802 32.0033 84.5859 31.5605C83.7982 31.1178 83.1927 30.4798 82.7695 29.6465C82.3464 28.8132 82.1348 27.8171 82.1348 26.6582V26.6387C82.1348 25.4928 82.3496 24.5065 82.7793 23.6797C83.209 22.8464 83.8177 22.2083 84.6055 21.7656C85.3932 21.3164 86.3275 21.0918 87.4082 21.0918C88.4954 21.0918 89.4329 21.3164 90.2207 21.7656C91.0085 22.2083 91.6139 22.8431 92.0371 23.6699C92.4668 24.4967 92.6816 25.4863 92.6816 26.6387V26.6582C92.6816 27.8171 92.4701 28.8132 92.0469 29.6465C91.6237 30.4798 91.0182 31.1178 90.2305 31.5605C89.4427 32.0033 88.502 32.2246 87.4082 32.2246ZM87.4082 29.9883C87.9095 29.9883 88.3327 29.8581 88.6777 29.5977C89.0293 29.3307 89.2995 28.9499 89.4883 28.4551C89.6771 27.9603 89.7715 27.3646 89.7715 26.668V26.6484C89.7715 25.9518 89.6771 25.3561 89.4883 24.8613C89.2995 24.3665 89.0293 23.9889 88.6777 23.7285C88.3262 23.4616 87.903 23.3281 87.4082 23.3281C86.9199 23.3281 86.5 23.4616 86.1484 23.7285C85.7969 23.9889 85.5267 24.3665 85.3379 24.8613C85.1491 25.3561 85.0547 25.9518 85.0547 26.6484V26.668C85.0547 27.3646 85.1458 27.9635 85.3281 28.4648C85.5169 28.9596 85.7871 29.3372 86.1387 29.5977C86.4902 29.8581 86.9134 29.9883 87.4082 29.9883ZM96.4902 32L93.6387 21.3164H96.5098L98.1113 29.0996H98.2578L100.133 21.3164H102.857L104.752 29.0996H104.898L106.49 21.3164H109.312L106.471 32H103.443L101.529 24.5195H101.383L99.4785 32H96.4902ZM115.172 32.2246C114.202 32.2246 113.375 32.0911 112.691 31.8242C112.008 31.5508 111.471 31.1732 111.08 30.6914C110.696 30.2096 110.468 29.6562 110.396 29.0312V28.9824H113.189L113.209 29.0312C113.32 29.3828 113.538 29.6693 113.863 29.8906C114.189 30.1055 114.635 30.2129 115.201 30.2129C115.566 30.2129 115.882 30.1641 116.148 30.0664C116.422 29.9688 116.633 29.8353 116.783 29.666C116.933 29.4902 117.008 29.2852 117.008 29.0508V29.0312C117.008 28.7448 116.894 28.5104 116.666 28.3281C116.438 28.1458 116.057 27.9928 115.523 27.8691L113.727 27.4883C113.049 27.3451 112.483 27.1367 112.027 26.8633C111.572 26.5898 111.23 26.2513 111.002 25.8477C110.774 25.444 110.66 24.9753 110.66 24.4414V24.4316C110.66 23.7611 110.846 23.1751 111.217 22.6738C111.588 22.1725 112.109 21.7852 112.779 21.5117C113.45 21.2318 114.231 21.0918 115.123 21.0918C116.061 21.0918 116.855 21.235 117.506 21.5215C118.163 21.8014 118.668 22.1823 119.02 22.6641C119.371 23.1458 119.566 23.6797 119.605 24.2656V24.3145H116.959L116.949 24.2656C116.884 23.9531 116.695 23.6829 116.383 23.4551C116.07 23.2207 115.647 23.1035 115.113 23.1035C114.788 23.1035 114.498 23.1523 114.244 23.25C113.997 23.3411 113.801 23.4746 113.658 23.6504C113.515 23.8197 113.443 24.0247 113.443 24.2656V24.2754C113.443 24.4642 113.492 24.6302 113.59 24.7734C113.688 24.9102 113.844 25.0306 114.059 25.1348C114.28 25.2389 114.573 25.3333 114.938 25.418L116.725 25.7988C117.805 26.0332 118.596 26.3848 119.098 26.8535C119.605 27.3158 119.859 27.9408 119.859 28.7285V28.7383C119.859 29.4414 119.658 30.0566 119.254 30.584C118.857 31.1048 118.307 31.5085 117.604 31.7949C116.9 32.0814 116.09 32.2246 115.172 32.2246ZM122.076 32V17.3223H124.928V32H122.076ZM132.408 32.2246C131.321 32.2246 130.38 32.0033 129.586 31.5605C128.798 31.1178 128.193 30.4798 127.77 29.6465C127.346 28.8132 127.135 27.8171 127.135 26.6582V26.6387C127.135 25.4928 127.35 24.5065 127.779 23.6797C128.209 22.8464 128.818 22.2083 129.605 21.7656C130.393 21.3164 131.327 21.0918 132.408 21.0918C133.495 21.0918 134.433 21.3164 135.221 21.7656C136.008 22.2083 136.614 22.8431 137.037 23.6699C137.467 24.4967 137.682 25.4863 137.682 26.6387V26.6582C137.682 27.8171 137.47 28.8132 137.047 29.6465C136.624 30.4798 136.018 31.1178 135.23 31.5605C134.443 32.0033 133.502 32.2246 132.408 32.2246ZM132.408 29.9883C132.91 29.9883 133.333 29.8581 133.678 29.5977C134.029 29.3307 134.299 28.9499 134.488 28.4551C134.677 27.9603 134.771 27.3646 134.771 26.668V26.6484C134.771 25.9518 134.677 25.3561 134.488 24.8613C134.299 24.3665 134.029 23.9889 133.678 23.7285C133.326 23.4616 132.903 23.3281 132.408 23.3281C131.92 23.3281 131.5 23.4616 131.148 23.7285C130.797 23.9889 130.527 24.3665 130.338 24.8613C130.149 25.3561 130.055 25.9518 130.055 26.6484V26.668C130.055 27.3646 130.146 27.9635 130.328 28.4648C130.517 28.9596 130.787 29.3372 131.139 29.5977C131.49 29.8581 131.913 29.9883 132.408 29.9883ZM141.49 32L138.639 21.3164H141.51L143.111 29.0996H143.258L145.133 21.3164H147.857L149.752 29.0996H149.898L151.49 21.3164H154.312L151.471 32H148.443L146.529 24.5195H146.383L144.479 32H141.49Z" fill="#A8C090"/>
</svg>
